<svg xmlns="http://www.w3.org/2000/svg" width="15" height="15" viewBox="0 0 15 15">
  <defs>
    <style>
      .cls-1 {
        fill: #2a262c;
        fill-rule: evenodd;
      }
    </style>
  </defs>
  <path id="search-icon" class="cls-1" d="M666.82,82.644a5.823,5.823,0,1,1,5.822-5.822A5.828,5.828,0,0,1,666.82,82.644Zm0-9.276a3.454,3.454,0,1,0,3.454,3.454A3.458,3.458,0,0,0,666.82,73.368ZM674.616,86a1.377,1.377,0,0,1-.977-0.4l-1.382-1.381a1.382,1.382,0,1,1,1.954-1.954l1.382,1.382A1.382,1.382,0,0,1,674.616,86Z" transform="translate(-661 -71)"/>
</svg>
