<svg id="واحسنوا" xmlns="http://www.w3.org/2000/svg" width="256.094" height="52" viewBox="0 0 256.094 52">
  <defs>
    <style>
      .cls-1 {
        font-size: 37.5px;
        text-anchor: end;
        fill: #2a2a26;
        font-family: Rakkas;
      }

      .cls-2 {
        fill: none;
        stroke: #2a2a26;
      }

      .cls-2, .cls-3 {
        stroke-width: 2px;
      }

      .cls-2, .cls-3, .cls-4 {
        fill-rule: evenodd;
      }

      .cls-3, .cls-4 {
        fill: #434340;
      }

      .cls-3 {
        stroke: #000;
      }
    </style>
  </defs>
  <text id="واحسنوا_إن_الله_يحب_المحسنين" data-name="واحسنوا إن الله يحب المحسنين" class="cls-1" transform="translate(256.609 40.952) scale(0.822 0.817)">واحسنوا إن الله يحب المحسنين</text>
  <g>
    <path class="cls-2" d="M698.2,755.011l-11.5,5.713" transform="translate(-521.906 -744)"/>
    <path id="Shape_1_copy" data-name="Shape 1 copy" class="cls-2" d="M748.024,787.383l-11.5,5.712" transform="translate(-521.906 -744)"/>
    <path id="Shape_1_copy_2" data-name="Shape 1 copy 2" class="cls-2" d="M560.22,787.383l-11.5,5.712" transform="translate(-521.906 -744)"/>
    <path id="Shape_1_copy_3" data-name="Shape 1 copy 3" class="cls-2" d="M535.307,789.286L523.809,795" transform="translate(-521.906 -744)"/>
    <path id="Shape_4_copy" data-name="Shape 4 copy" class="cls-3" d="M558.295,755.737a2.3,2.3,0,0,1-1.757-3.018,3.07,3.07,0,0,1,3.693-1.36c1.5,0.457,2.291,1.811,1.757,3.018A3.069,3.069,0,0,1,558.295,755.737Zm1.626-3.677a2.088,2.088,0,0,0-2.511.924,1.56,1.56,0,0,0,1.2,2.052,2.087,2.087,0,0,0,2.511-.924A1.56,1.56,0,0,0,559.921,752.06ZM556.94,758.8a0.429,0.429,0,0,1-.293-0.264,0.367,0.367,0,0,1,.332-0.45c3.8-.737,4.1-3.747,4.111-3.875a0.432,0.432,0,0,1,.492-0.34,0.42,0.42,0,0,1,.432.4c0,0.036-.338,3.676-4.8,4.539A0.562,0.562,0,0,1,556.94,758.8Z" transform="translate(-521.906 -744)"/>
    <path id="Shape_4_copy_2" data-name="Shape 4 copy 2" class="cls-3" d="M625.368,755.737c-1.5-.457-2.291-1.811-1.757-3.018a3.069,3.069,0,0,1,3.693-1.36,2.3,2.3,0,0,1,1.757,3.018A3.07,3.07,0,0,1,625.368,755.737Zm1.626-3.677a2.088,2.088,0,0,0-2.511.924,1.56,1.56,0,0,0,1.2,2.052,2.088,2.088,0,0,0,2.511-.924A1.56,1.56,0,0,0,626.994,752.06Zm-2.981,6.741a0.427,0.427,0,0,1-.293-0.264,0.367,0.367,0,0,1,.331-0.45c3.806-.737,4.1-3.747,4.112-3.875a0.432,0.432,0,0,1,.492-0.34,0.419,0.419,0,0,1,.431.4c0,0.036-.338,3.676-4.8,4.539A0.561,0.561,0,0,1,624.013,758.8Z" transform="translate(-521.906 -744)"/>
    <g>
      <path id="Shape_4_copy_3" data-name="Shape 4 copy 3" class="cls-4" d="M625.368,755.737c-1.5-.457-2.291-1.811-1.757-3.018a3.069,3.069,0,0,1,3.693-1.36,2.3,2.3,0,0,1,1.757,3.018A3.07,3.07,0,0,1,625.368,755.737Zm1.626-3.677a2.088,2.088,0,0,0-2.511.924,1.56,1.56,0,0,0,1.2,2.052,2.088,2.088,0,0,0,2.511-.924A1.56,1.56,0,0,0,626.994,752.06Zm-2.981,6.741a0.427,0.427,0,0,1-.293-0.264,0.367,0.367,0,0,1,.331-0.45c3.806-.737,4.1-3.747,4.112-3.875a0.432,0.432,0,0,1,.492-0.34,0.419,0.419,0,0,1,.431.4c0,0.036-.338,3.676-4.8,4.539A0.561,0.561,0,0,1,624.013,758.8Z" transform="translate(-521.906 -744)"/>
      <path id="Shape_4_copy_4" data-name="Shape 4 copy 4" class="cls-4" d="M625.368,755.737c-1.5-.457-2.291-1.811-1.757-3.018a3.069,3.069,0,0,1,3.693-1.36,2.3,2.3,0,0,1,1.757,3.018A3.07,3.07,0,0,1,625.368,755.737Zm1.626-3.677a2.088,2.088,0,0,0-2.511.924,1.56,1.56,0,0,0,1.2,2.052,2.088,2.088,0,0,0,2.511-.924A1.56,1.56,0,0,0,626.994,752.06Zm-2.981,6.741a0.427,0.427,0,0,1-.293-0.264,0.367,0.367,0,0,1,.331-0.45c3.806-.737,4.1-3.747,4.112-3.875a0.432,0.432,0,0,1,.492-0.34,0.419,0.419,0,0,1,.431.4c0,0.036-.338,3.676-4.8,4.539A0.561,0.561,0,0,1,624.013,758.8Z" transform="translate(-521.906 -744)"/>
    </g>
    <path class="cls-2" d="M752.812,751.187a4.766,4.766,0,1,1-4.781,4.766A4.774,4.774,0,0,1,752.812,751.187Zm-29.7,36.2" transform="translate(-521.906 -744)"/>
  </g>
</svg>
